<svg width="21" height="21" viewBox="0 0 21 21" fill="none" xmlns="http://www.w3.org/2000/svg">
<path d="M15.1369 10.5386C19.9778 10.3156 21.5607 8.95289 20.2046 8.4903C20.5174 8.16367 20.4571 7.88305 20.0439 7.73533C21.0898 6.66395 19.0351 6.17619 14.577 8.29478C18.6578 5.68114 19.3473 3.70963 17.9416 3.98706C18.0492 3.54772 17.8567 3.33496 17.4249 3.41368C17.7949 1.9629 15.7717 2.56772 12.9702 6.6315C15.1974 2.32773 14.8088 0.275462 13.7303 1.21866C13.6038 0.784441 13.3307 0.696394 12.996 0.980466C12.5912 -0.461108 11.1413 1.07451 10.7471 5.9946C10.5241 1.15374 9.16133 -0.429159 8.69874 0.926797C8.37212 0.613973 8.0915 0.674288 7.94378 1.08755C6.8724 0.0416105 6.38463 2.09631 8.50322 6.55444C5.88958 2.47367 3.91807 1.78412 4.1955 3.18979C3.75616 3.08219 3.5434 3.27477 3.62212 3.70656C2.17134 3.33649 2.77616 5.35975 6.83994 8.16124C2.53617 5.93403 0.483902 6.32263 1.4271 7.40116C0.992881 7.52767 0.904833 7.80075 1.18891 8.13543C-0.252669 8.54026 1.28295 9.99014 6.20304 10.3844C1.36218 10.6074 -0.220722 11.9701 1.13536 12.4326C0.822537 12.7592 0.882853 13.0398 1.29612 13.1875C0.250175 14.2589 2.30488 14.7467 6.76301 12.6281C2.68223 15.2417 1.99269 17.2132 3.39835 16.9358C3.29076 17.3751 3.48333 17.5879 3.91513 17.5092C3.54506 18.96 5.56832 18.3551 8.36994 14.2912C6.14273 18.5951 6.5312 20.6473 7.60986 19.7042C7.73637 20.1384 8.00945 20.2265 8.34413 19.9424C8.74896 21.384 10.1988 19.8483 10.5931 14.9283C10.8161 19.7691 12.1788 21.352 12.6414 19.9961C12.968 20.3089 13.2486 20.2486 13.3963 19.8353C14.4677 20.8812 14.9555 18.8265 12.837 14.3684C15.4505 18.4492 17.422 19.1387 17.1447 17.7331C17.5841 17.8407 17.7969 17.6481 17.7181 17.2163C19.1689 17.5865 18.5641 15.5631 14.5002 12.7615C18.804 14.9887 20.8562 14.6002 19.9132 13.5216C20.3474 13.3951 20.4354 13.122 20.1513 12.7873C21.5925 12.3827 20.057 10.933 15.1369 10.5386Z" fill="#FAA018"/>
<path d="M14.7289 9.89015C19.0831 8.99333 20.3218 7.53156 19.0268 7.30691C19.2633 6.9661 19.1685 6.7205 18.7727 6.64587C19.5667 5.52504 17.6349 5.37783 13.8995 7.93729C17.222 4.98348 17.5639 3.09823 16.3299 3.55123C16.3643 3.13771 16.1595 2.97248 15.7794 3.10576C15.9066 1.73805 14.1601 2.57659 12.2048 6.66069C13.6052 2.44139 12.9586 0.6378 12.1166 1.64707C11.9397 1.27175 11.6796 1.23111 11.4171 1.53652C10.8434 0.288421 9.75014 1.88795 10.099 6.40256C9.20218 2.04832 7.74042 0.809546 7.5159 2.10467C7.17509 1.86814 6.92948 1.96296 6.85485 2.35871C5.73403 1.56477 5.58681 3.49654 8.14627 7.2319C5.19246 3.90942 3.3072 3.56759 3.76021 4.80138C3.34669 4.767 3.18146 4.97197 3.31475 5.35188C1.94703 5.22474 2.78557 6.97121 6.86967 8.9265C2.65037 7.52607 0.846776 8.17268 1.85604 9.01467C1.48073 9.19166 1.4401 9.4517 1.74551 9.71418C0.497406 10.2879 2.09693 11.3812 6.61155 11.0323C2.2573 11.9291 1.01866 13.3909 2.31366 13.6154C2.07712 13.9562 2.17194 14.2018 2.5677 14.2765C1.77375 15.3973 3.70551 15.5445 7.44088 12.985C4.1184 15.9389 3.77657 17.8241 5.01036 17.3711C4.97599 17.7846 5.18096 17.9499 5.56087 17.8166C5.43372 19.1843 7.18019 18.3457 9.13547 14.2615C7.73505 18.4808 8.38166 20.2845 9.22365 19.2751C9.40064 19.6505 9.66069 19.691 9.92316 19.3857C10.4969 20.6338 11.5901 19.0343 11.2413 14.5196C12.1381 18.8739 13.5999 20.1127 13.8244 18.8175C14.1652 19.0541 14.4108 18.9592 14.4854 18.5635C15.6063 19.3574 15.7533 17.4257 13.194 13.6903C16.1478 17.0128 18.0331 17.3546 17.5801 16.1208C17.9936 16.1552 18.1588 15.9504 18.0256 15.5703C19.3933 15.6975 18.5547 13.951 14.4705 11.9957C18.6898 13.3961 20.4934 12.7495 19.4841 11.9075C19.8594 11.7305 19.9001 11.4705 19.5947 11.208C20.8429 10.6346 19.2435 9.54128 14.7289 9.89015Z" fill="#FFC241"/>
<path d="M15.5329 11.6348C16.1778 8.95165 14.5255 6.25369 11.8423 5.60876C9.15908 4.96384 6.46111 6.61617 5.81618 9.29936C5.17126 11.9826 6.82359 14.6805 9.50679 15.3255C12.19 15.9704 14.888 14.318 15.5329 11.6348Z" fill="#A67C52"/>
</svg>
