<svg width="22" height="21" viewBox="0 0 22 21" fill="none" xmlns="http://www.w3.org/2000/svg">
<path d="M21.7273 7.92147C20.9984 5.72095 18.589 4.51671 16.3458 5.23175C16.095 5.31164 15.8593 5.41495 15.6352 5.53353C15.681 5.28795 15.7083 5.03592 15.7083 4.7773C15.7083 2.4636 13.7962 0.587891 11.4376 0.587891C9.07879 0.587891 7.16679 2.4636 7.16679 4.7773C7.16679 5.03592 7.19416 5.28782 7.23977 5.53353C7.01572 5.41495 6.77985 5.31164 6.52923 5.23175C4.28597 4.51671 1.87662 5.72095 1.14769 7.92147C0.418769 10.122 1.64652 12.4854 3.88965 13.2005C4.14027 13.2804 4.39304 13.3327 4.64541 13.366C4.4612 13.5385 4.28812 13.7265 4.13316 13.9357C2.74682 15.8075 3.16971 18.4275 5.07796 19.7874C6.9862 21.1474 9.65705 20.7325 11.0434 18.8606C11.1983 18.6515 11.3271 18.4318 11.4374 18.2068C11.5476 18.4318 11.6765 18.6515 11.8313 18.8606C13.2177 20.7325 15.8885 21.1475 17.7968 19.7874C19.705 18.4275 20.128 15.8075 18.7416 13.9357C18.5866 13.7265 18.4135 13.5385 18.2293 13.366C18.4816 13.3327 18.7343 13.2804 18.9851 13.2005C21.2285 12.4853 22.4562 10.1219 21.7273 7.92147ZM11.4376 14.4242C9.5045 14.4242 7.93758 12.887 7.93758 10.9909C7.93758 9.09477 9.50464 7.55757 11.4376 7.55757C13.3705 7.55757 14.9376 9.09464 14.9376 10.9909C14.9376 12.887 13.3705 14.4242 11.4376 14.4242Z" fill="#F0588D"/>
</svg>
