<svg width="21" height="21" viewBox="0 0 21 21" fill="none" xmlns="http://www.w3.org/2000/svg">
<path d="M9.08826 10.193C10.3346 11.619 12.4688 11.6945 13.8553 10.3618C13.0984 8.59392 11.1037 7.83101 9.40004 8.65786C9.06716 8.81935 8.77075 9.03033 8.51367 9.27725C8.65393 9.60491 8.84485 9.9146 9.08826 10.193Z" fill="#F0588D"/>
<path d="M14.9192 5.24796C16.6657 6.92861 17.529 9.11872 17.4229 11.0936C19.5995 8.78533 19.6831 5.31126 17.5978 3.30464C15.7664 1.54234 12.8681 1.49493 10.6836 3.04274C12.1608 3.29696 13.6629 4.03915 14.9192 5.24796Z" fill="#F0588D"/>
<path d="M8.06933 17.9602C5.67539 18.0797 3.51757 17.3085 2.17383 16.0327C2.3473 18.8707 4.78122 21.0474 7.63944 20.9047C10.1495 20.7794 12.1564 18.9067 12.5335 16.528C11.3457 17.3419 9.79114 17.8742 8.06933 17.9602Z" fill="#F0588D"/>
<path d="M4.55284 12.7522C3.00047 10.7848 2.407 8.43373 2.76696 6.44678C0.268965 8.46017 -0.26004 11.9708 1.59343 14.3198C3.22121 16.3828 6.14819 16.8673 8.55684 15.6263C7.09446 15.1462 5.66933 14.1673 4.55284 12.7522Z" fill="#F0588D"/>
<path d="M17.6352 14.2908C16.2421 16.4365 14.2511 17.8377 12.3457 18.2276C14.8282 19.7988 18.1672 19.0112 19.8306 16.4493C21.2913 14.1992 20.9762 11.3253 19.2215 9.55566C19.1616 11.0781 18.6372 12.7474 17.6352 14.2908Z" fill="#F0588D"/>
<path d="M13.8261 12.6096C12.8169 13.9096 11.4746 14.7937 10.0215 15.2359C12.3916 16.0759 14.7211 15.7615 15.9114 14.2282C17.1016 12.695 16.8286 10.3603 15.4272 8.27246C15.3592 9.79006 14.8354 11.3096 13.8261 12.6096Z" fill="#F0588D"/>
<path d="M11.3355 7.07108C12.6558 7.07108 13.8991 7.36841 14.9918 7.89103C14.1367 5.79611 12.785 4.44287 11.2631 4.44287C9.71956 4.44287 8.35081 5.83466 7.49805 7.9805C8.63342 7.40227 9.94173 7.07108 11.3355 7.07108Z" fill="#F0588D"/>
<path d="M8.58361 11.435C7.58382 10.5729 6.83628 9.53572 6.35012 8.42627C5.62968 10.5711 5.76942 12.4787 6.92211 13.4726C8.09107 14.4806 10.0365 14.3205 12.0836 13.2523C10.8461 12.9489 9.63915 12.3453 8.58361 11.435Z" fill="#F0588D"/>
<path d="M7.02719 5.13494C8.46691 3.36222 10.2516 2.10027 12.086 1.41551C9.07263 0.428085 6.11296 0.88064 4.50536 2.86004C2.94426 4.78227 3.05561 7.65663 4.51422 10.3365C4.87483 8.56213 5.71431 6.75151 7.02719 5.13494Z" fill="#F0588D"/>
</svg>
