<svg width="21" height="21" viewBox="0 0 21 21" fill="none" xmlns="http://www.w3.org/2000/svg">
<path d="M20.3486 10.5397C21.593 9.71141 20.355 8.51362 16.7548 8.92124C20.1012 7.53242 20.6032 5.8846 19.1134 5.76347C19.7769 4.42397 18.1058 4.00563 15.1919 6.15868C17.3954 3.28279 17.0063 1.60469 15.6554 2.24472C15.5604 0.752921 13.904 1.22621 12.457 4.54766C12.9274 0.955195 11.7515 -0.303543 10.9015 0.926316C10.0732 -0.318109 8.87544 0.919928 9.28305 4.52006C7.89424 1.17382 6.24642 0.671655 6.12528 2.16154C4.78579 1.49799 4.36744 3.16907 6.52049 6.08304C3.6446 3.87951 1.9665 4.26847 2.60654 5.61946C1.11474 5.71453 1.58803 7.3709 4.90948 8.81799C1.31714 8.34764 0.0584015 9.52358 1.28813 10.3734C0.043707 11.2017 1.28174 12.3995 4.88188 11.9919C1.53564 13.3807 1.03347 15.0285 2.52336 15.1496C1.85981 16.4891 3.53088 16.9075 6.44485 14.7544C4.24133 17.6303 4.63028 19.3084 5.98128 18.6684C6.07634 20.1602 7.73272 19.6869 9.1798 16.3654C8.70945 19.9579 9.88539 21.2166 10.7352 19.9868C11.5635 21.2312 12.7613 19.9932 12.3537 16.393C13.7425 19.7393 15.3903 20.2414 15.5114 18.7515C16.8509 19.4151 17.2693 17.744 15.1162 14.8301C17.9921 17.0336 19.6702 16.6445 19.0302 15.2936C20.522 15.1986 20.0487 13.5422 16.7272 12.0951C20.3197 12.5655 21.5784 11.3895 20.3486 10.5397Z" fill="#F0588D"/>
<path d="M11.425 4.05155C11.3683 5.13294 11.2171 6.00412 11.0874 5.99735C10.9576 5.99057 10.8985 5.1084 10.9551 4.02689C11.0118 2.94551 11.163 2.07432 11.2926 2.08109C11.4225 2.08799 11.4818 2.97017 11.425 4.05155Z" fill="#F0588D"/>
<path d="M10.72 4.02689C10.7766 5.10828 10.7174 5.99045 10.5876 5.99735C10.4578 6.00412 10.3067 5.13294 10.25 4.05155C10.1934 2.97017 10.2525 2.08799 10.3824 2.08109C10.5122 2.07432 10.6634 2.94551 10.72 4.02689Z" fill="#F0588D"/>
<path d="M8.14387 4.6065C8.63556 5.57135 8.94018 6.40139 8.82441 6.46042C8.70864 6.51945 8.21619 5.78499 7.72463 4.82014C7.23294 3.8553 6.92832 3.02525 7.04409 2.96621C7.15973 2.90718 7.65218 3.64152 8.14387 4.6065Z" fill="#F0588D"/>
<path d="M7.51986 4.93789C8.10968 5.84614 8.4994 6.63976 8.39041 6.71043C8.28142 6.78121 7.71497 6.10233 7.12515 5.19409C6.53533 4.28585 6.14561 3.49222 6.2546 3.42156C6.3636 3.3509 6.93004 4.02965 7.51986 4.93789Z" fill="#F0588D"/>
<path d="M5.5746 6.72819C6.48284 7.31801 7.16173 7.88444 7.09094 7.99344C7.02015 8.10243 6.22652 7.71258 5.31828 7.12289C4.41004 6.53307 3.73116 5.96663 3.80194 5.85763C3.87273 5.74864 4.66636 6.13836 5.5746 6.72819Z" fill="#F0588D"/>
<path d="M5.201 7.32717C6.16585 7.81886 6.90019 8.31118 6.84128 8.42695C6.78225 8.54272 5.95221 8.2381 4.98736 7.74641C4.02251 7.25472 3.28804 6.76239 3.34707 6.64663C3.40611 6.53086 4.23615 6.83548 5.201 7.32717Z" fill="#F0588D"/>
<path d="M4.41386 9.84909C5.49524 9.90582 6.36643 10.0568 6.35966 10.1867C6.35289 10.3165 5.47071 10.3757 4.3892 10.3191C3.30782 10.2624 2.43663 10.1113 2.4434 9.98147C2.4503 9.85177 3.33248 9.79248 4.41386 9.84909Z" fill="#F0588D"/>
<path d="M4.3892 10.5552C5.47058 10.4986 6.35276 10.5577 6.35966 10.6875C6.36643 10.8174 5.49537 10.9684 4.41386 11.0251C3.33248 11.0819 2.4503 11.0226 2.4434 10.8928C2.43663 10.7629 3.30782 10.6118 4.3892 10.5552Z" fill="#F0588D"/>
<path d="M4.96781 13.1328C5.93266 12.6413 6.7627 12.3365 6.82174 12.4523C6.88077 12.5681 6.14643 13.0605 5.18146 13.5521C4.21661 14.0438 3.38656 14.3484 3.32753 14.2326C3.26862 14.1168 4.00297 13.6245 4.96781 13.1328Z" fill="#F0588D"/>
<path d="M5.29875 13.7565C6.20699 13.1667 7.00062 12.777 7.07141 12.886C7.1422 12.9949 6.46331 13.5614 5.55507 14.1512C4.64683 14.741 3.8532 15.1308 3.78241 15.0218C3.71162 14.9128 4.39051 14.3463 5.29875 13.7565Z" fill="#F0588D"/>
<path d="M7.08999 15.6996C7.67982 14.7914 8.24625 14.1125 8.35525 14.1833C8.46424 14.2541 8.07452 15.0477 7.4847 15.9558C6.89488 16.8641 6.32844 17.5429 6.21945 17.4722C6.11045 17.4015 6.50017 16.6079 7.08999 15.6996Z" fill="#F0588D"/>
<path d="M7.68947 16.0738C8.18116 15.1089 8.67348 14.3745 8.78925 14.4335C8.90501 14.4925 8.60039 15.3224 8.10871 16.2874C7.61702 17.2523 7.12469 17.9866 7.00893 17.9277C6.89316 17.8687 7.19791 17.0386 7.68947 16.0738Z" fill="#F0588D"/>
<path d="M10.2109 16.8614C10.2675 15.78 10.4187 14.9088 10.5485 14.9156C10.6783 14.9223 10.7375 15.8045 10.6809 16.886C10.6241 17.9674 10.4731 18.8386 10.3433 18.8318C10.2136 18.8249 10.1543 17.9427 10.2109 16.8614Z" fill="#F0588D"/>
<path d="M10.918 16.886C10.8613 15.8046 10.9206 14.9225 11.0504 14.9156C11.1802 14.9088 11.3312 15.78 11.388 16.8614C11.4446 17.9427 11.3854 18.8249 11.2556 18.8318C11.1258 18.8386 10.9746 17.9674 10.918 16.886Z" fill="#F0588D"/>
<path d="M13.4942 16.3065C13.0025 15.3416 12.6979 14.5116 12.8136 14.4525C12.9294 14.3935 13.4218 15.128 13.9134 16.0928C14.405 17.0577 14.7097 17.8877 14.5939 17.9467C14.4782 18.0058 13.9859 17.2714 13.4942 16.3065Z" fill="#F0588D"/>
<path d="M14.1173 15.9749C13.5275 15.0666 13.1378 14.273 13.2468 14.2023C13.3558 14.1315 13.9222 14.8104 14.512 15.7187C15.1019 16.6269 15.4916 17.4205 15.3826 17.4912C15.2736 17.562 14.707 16.8831 14.1173 15.9749Z" fill="#F0588D"/>
<path d="M16.0624 14.1849C15.1542 13.5951 14.4753 13.0286 14.5461 12.9196C14.6169 12.8106 15.4105 13.2005 16.3186 13.7902C17.2269 14.38 17.9057 14.9464 17.835 15.0554C17.7642 15.1644 16.9705 14.7746 16.0624 14.1849Z" fill="#F0588D"/>
<path d="M16.4366 13.5858C15.4717 13.0941 14.7374 12.6017 14.7963 12.486C14.8553 12.3702 15.6852 12.6748 16.6502 13.1665C17.6151 13.6582 18.3495 14.1505 18.2905 14.2663C18.2315 14.3821 17.4014 14.0773 16.4366 13.5858Z" fill="#F0588D"/>
<path d="M17.2232 11.0637C16.1418 11.007 15.2706 10.8559 15.2774 10.7261C15.2842 10.5963 16.1663 10.5371 17.2478 10.5937C18.3292 10.6503 19.2004 10.8015 19.1936 10.9313C19.1867 11.061 18.3046 11.1203 17.2232 11.0637Z" fill="#F0588D"/>
<path d="M17.2478 10.3582C16.1665 10.4149 15.2843 10.3556 15.2774 10.2258C15.2706 10.096 16.1417 9.94496 17.2232 9.88822C18.3046 9.83149 19.1867 9.89078 19.1936 10.0206C19.2004 10.1504 18.3292 10.3016 17.2478 10.3582Z" fill="#F0588D"/>
<path d="M16.6697 7.78009C15.7049 8.27165 14.8749 8.57641 14.8158 8.46064C14.7568 8.34488 15.4913 7.85242 16.4561 7.36086C17.4209 6.8693 18.251 6.56454 18.31 6.68031C18.3691 6.79595 17.6347 7.2884 16.6697 7.78009Z" fill="#F0588D"/>
<path d="M16.3383 7.15657C15.43 7.74639 14.6364 8.13611 14.5656 8.02712C14.4948 7.91813 15.1737 7.35169 16.082 6.76187C16.9902 6.17205 17.7838 5.78233 17.8545 5.89132C17.9254 6.00032 17.2465 6.56675 16.3383 7.15657Z" fill="#F0588D"/>
<path d="M14.5452 5.21364C13.9554 6.12188 13.389 6.80076 13.28 6.72997C13.171 6.65918 13.5608 5.86556 14.1505 4.95744C14.7404 4.0492 15.3068 3.37032 15.4158 3.4411C15.5248 3.51189 15.1349 4.30539 14.5452 5.21364Z" fill="#F0588D"/>
<path d="M13.9466 4.83917C13.4549 5.80401 12.9626 6.53848 12.8468 6.47945C12.7311 6.42042 13.0357 5.5905 13.5274 4.62552C14.0191 3.66067 14.5114 2.92634 14.6271 2.98524C14.7429 3.04428 14.4382 3.87432 13.9466 4.83917Z" fill="#F0588D"/>
<path d="M15.6856 11.277C16.1365 8.58674 14.3212 6.04035 11.6309 5.58943C8.94072 5.13852 6.39433 6.95383 5.94341 9.64405C5.49249 12.3343 7.30781 14.8807 9.99803 15.3316C12.6883 15.7825 15.2347 13.9672 15.6856 11.277Z" fill="#FFB312"/>
</svg>
