<svg width="21" height="21" viewBox="0 0 21 21" fill="none" xmlns="http://www.w3.org/2000/svg">
<path d="M13.6817 8.94378C13.756 9.0698 13.8229 9.20074 13.8807 9.33647C22.6446 5.14247 16.2819 -1.22023 12.0879 7.5437C12.2237 7.60144 12.3546 7.66829 12.4806 7.74268C13.6445 6.81425 14.6099 7.7797 13.6817 8.94378Z" fill="#AF7AC5"/>
<path d="M9.06538 7.74268C9.19141 7.66841 9.32235 7.60144 9.45808 7.5437C5.26396 -1.22023 -1.09861 5.14247 7.66531 9.33647C7.72305 9.20062 7.7899 9.0698 7.86429 8.94378C6.93598 7.77982 7.90143 6.81437 9.06538 7.74268Z" fill="#AF7AC5"/>
<path d="M11.6221 7.38497C11.7655 7.42235 11.9049 7.46943 12.0404 7.52453C15.2726 -1.63904 6.27336 -1.63904 9.50551 7.52453C9.64088 7.46943 9.78032 7.42235 9.92384 7.38497C10.0913 5.90798 11.4546 5.90798 11.6221 7.38497Z" fill="#AF7AC5"/>
<path d="M14.04 11.501C14.0026 11.6444 13.9555 11.7838 13.9004 11.9193C23.064 15.1515 23.064 6.15227 13.9004 9.38441C13.9555 9.51979 14.0026 9.65923 14.04 9.80275C15.5169 9.97022 15.5169 11.3335 14.04 11.501Z" fill="#AF7AC5"/>
<path d="M12.4806 13.5611C12.3546 13.6353 12.2236 13.7023 12.0879 13.7601C16.282 22.524 22.6446 16.1613 13.8807 11.9673C13.8229 12.1031 13.7561 12.234 13.6817 12.36C14.61 13.5238 13.6447 14.4893 12.4806 13.5611Z" fill="#AF7AC5"/>
<path d="M9.92384 13.9189C9.78044 13.8816 9.64088 13.8344 9.50551 13.7793C6.27336 22.9429 15.2726 22.9429 12.0404 13.7793C11.9051 13.8344 11.7656 13.8815 11.6221 13.9189C11.4546 15.3958 10.0913 15.3958 9.92384 13.9189Z" fill="#AF7AC5"/>
<path d="M7.86426 12.36C7.78999 12.234 7.72302 12.103 7.66528 11.9673C-1.09865 16.1613 5.26406 22.524 9.45806 13.7601C9.32221 13.7023 9.19138 13.6355 9.06536 13.5611C7.90152 14.4894 6.93607 13.5239 7.86426 12.36Z" fill="#AF7AC5"/>
<path d="M7.50655 9.80275C7.54392 9.65935 7.59101 9.51991 7.64612 9.38441C-1.51746 6.15227 -1.51746 15.1515 7.64612 11.9193C7.59101 11.784 7.54392 11.6445 7.50655 11.501C6.02944 11.3335 6.02944 9.97022 7.50655 9.80275Z" fill="#AF7AC5"/>
<path d="M10.7735 13.402C12.2923 13.402 13.5236 12.1708 13.5236 10.6519C13.5236 9.13311 12.2923 7.90186 10.7735 7.90186C9.25469 7.90186 8.02344 9.13311 8.02344 10.6519C8.02344 12.1708 9.25469 13.402 10.7735 13.402Z" fill="#AF7AC5"/>
</svg>
